<svg width="228" height="45" viewBox="0 0 228 45" fill="none" xmlns="http://www.w3.org/2000/svg">
<path d="M15.673 29.018H9.567V44.061H0V0H17.813C20.709 0 23.331 0.618998 25.681 1.857C28.031 3.095 29.867 4.826 31.188 7.05C32.51 9.274 33.171 11.791 33.171 14.603C33.171 17.415 32.458 19.953 31.031 22.219C29.604 24.486 27.653 26.206 25.177 27.38L34.933 44.061H24.233L15.673 29.018ZM9.567 20.205H17.183C19.113 20.205 20.656 19.68 21.809 18.631C22.963 17.582 23.54 16.218 23.54 14.54C23.54 13.407 23.288 12.41 22.784 11.55C22.281 10.69 21.546 10.018 20.581 9.535C19.616 9.053 18.483 8.811 17.182 8.811H9.566L9.567 20.205Z" fill="#EE0979"/>
<path d="M67.8871 35.186V44.061H40.7581V0H67.1951V8.812H50.3251V17.499H65.5571V26.123H50.3241V35.186H67.8871Z" fill="#EE0979"/>
<path d="M102.035 35.186V44.061H75.598V0H85.165V35.186H102.035Z" fill="#EE0979"/>
<path d="M139.52 6.2C143.737 10.334 145.846 15.589 145.846 21.968C145.846 28.347 143.737 33.623 139.52 37.799C135.302 41.974 129.963 44.062 123.5 44.062H106.82V0H123.5C129.963 0 135.302 2.067 139.52 6.2ZM132.501 31.473C134.893 28.997 136.089 25.829 136.089 21.968C136.089 18.108 134.893 14.96 132.501 12.527C130.109 10.094 127.025 8.876 123.248 8.876H116.387V35.187H123.248C127.025 35.186 130.11 33.948 132.501 31.473Z" fill="#EE0979"/>
<path d="M170.079 26.248V44.061H160.26V26.185L144.903 0H155.037L165.234 17.625L175.43 0H185.564L170.079 26.248Z" fill="#EE0979"/>
<path d="M227.467 0V44.061H219.536L199.582 16.555V44.062H190.203V0H198.827L218.15 26.877V0H227.467Z" fill="#EE0979"/>
</svg>
